<svg width="15" height="16" viewBox="0 0 15 16" fill="none" xmlns="http://www.w3.org/2000/svg">
<path d="M14.882 6.58801C14.882 8.22701 14.3 9.62801 13.138 10.79C11.976 11.953 10.575 12.534 8.93503 12.534C7.54403 12.534 6.29603 12.096 5.19003 11.22L1.27304 15.136C1.15904 15.27 1.01104 15.336 0.830035 15.336C0.648035 15.336 0.496035 15.274 0.372035 15.15C0.248035 15.026 0.186035 14.874 0.186035 14.693C0.186035 14.511 0.253035 14.364 0.386035 14.25L4.30303 10.333C3.42603 9.22901 2.98804 7.97901 2.98804 6.58801C2.98804 4.94901 3.56904 3.54801 4.73204 2.38501C5.89504 1.22301 7.29504 0.641006 8.93404 0.641006C10.575 0.641006 11.975 1.22301 13.137 2.38501C14.3 3.54801 14.882 4.94901 14.882 6.58801ZM13.968 6.58801C13.968 5.19701 13.476 4.01001 12.495 3.02801C11.513 2.04701 10.327 1.55501 8.93404 1.55501C7.54304 1.55501 6.35703 2.04601 5.37503 3.02801C4.39403 4.01001 3.90304 5.19701 3.90304 6.58801C3.90304 7.98001 4.39404 9.16601 5.37604 10.148C6.35704 11.129 7.54403 11.62 8.93503 11.62C10.328 11.62 11.513 11.13 12.496 10.148C13.475 9.16601 13.968 7.97901 13.968 6.58801Z" fill="black"/>
</svg>
