<svg width="14" height="11" viewBox="0 0 14 11" fill="none" xmlns="http://www.w3.org/2000/svg">
<path d="M12.5666 0.853601C13.0141 0.853601 13.3775 1.21699 13.3775 1.66452V9.77368C13.3775 10.2212 13.0141 10.5846 12.5666 10.5846H1.21375C0.766224 10.5846 0.402832 10.2212 0.402832 9.77368V1.66452C0.402832 1.21699 0.766224 0.853601 1.21375 0.853601H12.5666ZM5.00884 6.55181L1.78696 9.77368H11.9934L8.76338 6.54294L6.89168 7.83153L5.00884 6.55181ZM1.21375 9.20046L4.32615 6.0873L1.21375 3.97157V9.20046ZM9.44201 6.0759L12.5666 9.20046V3.92545L9.44201 6.0759ZM12.5666 1.66452H1.21375V2.99189L6.88864 6.85033L12.5496 2.95235L12.5666 2.97668V1.66452Z" fill="#000001"/>
</svg>
