<svg width="16" height="16" viewBox="0 0 16 16" fill="none" xmlns="http://www.w3.org/2000/svg">
<path d="M15.3759 6.91198C15.3759 8.55098 14.7939 9.95198 13.6319 11.114C12.4699 12.277 11.0689 12.858 9.42893 12.858C8.03793 12.858 6.78993 12.42 5.68393 11.544L1.76693 15.46C1.65293 15.594 1.50493 15.66 1.32393 15.66C1.14193 15.66 0.989932 15.598 0.865932 15.474C0.741932 15.35 0.679932 15.198 0.679932 15.017C0.679932 14.835 0.746932 14.688 0.879932 14.574L4.79693 10.657C3.91993 9.55298 3.48193 8.30298 3.48193 6.91198C3.48193 5.27298 4.06293 3.87198 5.22593 2.70898C6.38893 1.54698 7.78893 0.964981 9.42793 0.964981C11.0689 0.964981 12.4689 1.54698 13.6309 2.70898C14.7939 3.87198 15.3759 5.27298 15.3759 6.91198ZM14.4619 6.91198C14.4619 5.52098 13.9699 4.33398 12.9889 3.35198C12.0069 2.37098 10.8209 1.87898 9.42793 1.87898C8.03693 1.87898 6.85093 2.36998 5.86893 3.35198C4.88793 4.33398 4.39693 5.52098 4.39693 6.91198C4.39693 8.30398 4.88793 9.48998 5.86993 10.472C6.85093 11.453 8.03793 11.944 9.42893 11.944C10.8219 11.944 12.0069 11.454 12.9899 10.472C13.9689 9.48998 14.4619 8.30298 14.4619 6.91198Z" fill="black"/>
</svg>
