<svg width="14" height="12" viewBox="0 0 14 12" fill="none" xmlns="http://www.w3.org/2000/svg">
<path d="M1.06047 5.70976C0.885363 5.84939 0.630684 5.821 0.491308 5.64564C0.351932 5.47054 0.380314 5.21586 0.554661 5.07572L2.83486 3.25116V0.932699C2.83486 0.485174 3.19825 0.121782 3.64577 0.121782C4.0933 0.121782 4.45669 0.485174 4.45669 0.932699V1.95369L6.63653 0.210223C6.78478 0.0918798 6.99486 0.0918798 7.14335 0.210223L13.2252 5.07572C13.3996 5.21586 13.428 5.47054 13.2883 5.64564C13.208 5.74625 13.0904 5.7982 12.9713 5.7982C12.8821 5.7982 12.7929 5.76905 12.7184 5.70976L11.7549 4.93938V10.6637C11.7549 11.1112 11.3915 11.4746 10.944 11.4746H8.51127C8.06375 11.4746 7.70035 11.1112 7.70035 10.6637V7.42003H6.07852V10.6637C6.07852 11.1112 5.71513 11.4746 5.2676 11.4746H2.83486C2.38733 11.4746 2.02394 11.1112 2.02394 10.6637V4.93938L1.06047 5.70976ZM6.88944 1.04623L2.83486 4.29065V10.6637H5.2676V6.60911H8.51127V10.6637H10.944V4.28989L6.88944 1.04623Z" fill="#000001"/>
</svg>
