<svg width="14" height="12" viewBox="0 0 14 12" fill="none" xmlns="http://www.w3.org/2000/svg">
<path d="M12.5666 7.49913C13.0141 7.49913 13.3775 7.86252 13.3775 8.31005V9.93188C13.3775 10.3794 13.0141 10.7428 12.5666 10.7428C12.5666 11.1903 12.2032 11.5537 11.7557 11.5537C11.3081 11.5537 10.9447 11.1903 10.9447 10.7428V7.49913C10.9447 7.05161 11.3081 6.68821 11.7557 6.68821V5.8773C11.7557 2.53379 9.23371 1.0118 6.89016 1.0118C4.47287 1.0118 2.02466 2.68305 2.02466 5.8773V6.68821C2.47219 6.68821 2.83558 7.05161 2.83558 7.49913V10.7428C2.83558 11.1903 2.47219 11.5537 2.02466 11.5537C1.57714 11.5537 1.21375 11.1903 1.21375 10.7428C0.766224 10.7428 0.402832 10.3794 0.402832 9.93188V8.31005C0.402832 7.86252 0.766224 7.49913 1.21375 7.49913V5.8773C1.21375 2.19016 4.13786 0.200884 6.89016 0.200884C9.71139 0.200884 12.5666 2.15038 12.5666 5.8773V7.49913Z" fill="#000001"/>
</svg>
